<svg width="49" height="48" viewBox="0 0 49 48" fill="none" xmlns="http://www.w3.org/2000/svg">
<path d="M20.4669 29.2725H13.0269L11.5069 33.9924C11.4669 34.1724 11.3069 34.2924 11.1269 34.2726H7.3669C7.14691 34.2726 7.08691 34.1526 7.14691 33.9126L13.5869 15.4525C13.6469 15.2525 13.7069 15.0725 13.7869 14.8325C13.8669 14.4125 13.9069 13.9725 13.9069 13.5325C13.8869 13.4325 13.9669 13.3325 14.0669 13.3125H14.1269H19.2469C19.3869 13.3125 19.4869 13.3725 19.5069 13.4725L26.8069 33.8724C26.8669 34.0926 26.8069 34.1925 26.607 34.1925H22.4269C22.287 34.2126 22.1469 34.1124 22.107 33.9726L20.4669 29.1726V29.2725ZM14.1869 25.2924H19.2669C19.1469 24.8724 18.9869 24.3726 18.8069 23.8524C18.6269 23.3124 18.4469 22.7325 18.2669 22.1325C18.0669 21.5124 17.8869 20.9124 17.6869 20.2926C17.4869 19.6725 17.3069 19.0926 17.1469 18.5125C16.9869 17.9525 16.8469 17.4325 16.7069 16.9525H16.6669C16.4869 17.8125 16.2669 18.6725 15.9869 19.5324C15.6869 20.4924 15.3869 21.4926 15.0669 22.4925C14.8069 23.5125 14.4869 24.4524 14.1869 25.2924Z" fill="#9999FF"/>
<path d="M38.5869 27.4725H32.247C32.3269 28.0925 32.5269 28.7124 32.8669 29.2524C33.2269 29.7924 33.7269 30.2124 34.3269 30.4524C35.127 30.7925 36.0069 30.9725 36.8869 30.9525C37.587 30.9324 38.2869 30.8724 38.967 30.7325C39.5869 30.6525 40.1869 30.4925 40.7469 30.2724C40.8469 30.1925 40.9069 30.2325 40.9069 30.4325V33.4925C40.9069 33.5724 40.887 33.6525 40.8669 33.7325C40.827 33.7925 40.7869 33.8325 40.7269 33.8724C40.0869 34.1525 39.4269 34.3524 38.727 34.4724C37.7869 34.6524 36.8469 34.7325 35.8869 34.7124C34.3669 34.7124 33.087 34.4724 32.0469 34.0125C31.0669 33.5925 30.207 32.9325 29.5269 32.1125C28.887 31.3325 28.4269 30.4524 28.1469 29.4924C27.867 28.5525 27.7269 27.5724 27.7269 26.5725C27.7269 25.4925 27.8869 24.4325 28.227 23.3925C28.5469 22.3925 29.0469 21.4725 29.727 20.6525C30.387 19.8525 31.2069 19.2125 32.1469 18.7524C33.087 18.2925 34.2069 18.1325 35.487 18.1325C36.5469 18.1125 37.6069 18.3125 38.5869 18.7524C39.4069 19.1124 40.1269 19.6524 40.6869 20.3525C41.2069 21.0324 41.6269 21.7925 41.8869 22.6325C42.147 23.4324 42.267 24.2525 42.267 25.0725C42.267 25.5525 42.2469 25.9725 42.2269 26.3525C42.1869 26.7324 42.1669 27.0125 42.147 27.1925C42.1269 27.3324 42.0069 27.4524 41.8669 27.4524C41.7469 27.4524 41.5269 27.4725 41.2069 27.4925C40.887 27.5325 40.5069 27.5525 40.047 27.5525C39.5869 27.5525 39.1069 27.4725 38.5869 27.4725ZM32.247 24.5525H36.4669C36.987 24.5525 37.3669 24.5525 37.6069 24.5325C37.767 24.5124 37.9269 24.4725 38.067 24.3725V24.1725C38.067 23.9124 38.0269 23.6724 37.947 23.4324C37.587 22.3125 36.5269 21.5525 35.3469 21.5925C34.2469 21.5325 33.207 22.1124 32.6869 23.1125C32.4469 23.5725 32.307 24.0525 32.247 24.5525Z" fill="#9999FF"/>
</svg>
