<svg width="49" height="48" viewBox="0 0 49 48" fill="none" xmlns="http://www.w3.org/2000/svg">
<path d="M20.8177 9.15338H12.1479C10.4212 9.15338 9.00202 10.6275 9.00202 12.4528C8.94034 14.2146 10.2971 15.6881 11.9943 15.7521H20.9104L20.8177 9.15338Z" fill="#073042"/>
<path d="M40.4691 38.4943H12.1479C10.3902 38.4943 9.002 37.0209 9.002 35.1951V12.4211C9.002 14.2466 10.4212 15.7202 12.1479 15.7521H35.8727C35.8727 15.7521 40.5 15.3362 40.5 18.9557V38.4943H40.4691Z" fill="#4285F4"/>
<path d="M27.2649 26.835C28.5298 25.8422 28.7766 23.9845 27.8211 22.7029C27.2961 21.9983 26.4939 21.55 25.6297 21.5177H25.7224C25.8771 21.4858 26.0619 21.4858 26.2168 21.5177V19.692C26.2168 19.4678 26.1238 19.2756 25.9387 19.1798C25.6609 19.0195 25.3217 19.1157 25.1676 19.4038C25.1057 19.5 25.0749 19.596 25.1057 19.7241V21.5817C23.5633 21.838 22.4835 23.3436 22.7297 24.9775V25.0093C22.8536 25.7781 23.2551 26.4829 23.8717 26.9312L18.6579 38.5264H22.0517L24.4577 33.2093C24.7359 32.5684 25.476 32.2804 26.1238 32.6007C26.3711 32.7289 26.5866 32.953 26.7099 33.2093L29.2093 38.5264H32.6642L27.2649 26.835ZM25.5067 26.3226C24.5194 26.3226 23.7482 25.4897 23.7482 24.465C23.7482 23.4396 24.5503 22.639 25.5373 22.6708C26.0001 22.6708 26.4019 22.8632 26.7407 23.1838C27.4502 23.8881 27.4502 25.0414 26.7714 25.7781C26.4632 26.0985 26.0001 26.3226 25.5067 26.3226Z" fill="#3870B2"/>
<path d="M18.9359 10.7556H31.0909V13.0617H18.9359V10.7556Z" fill="white"/>
<path d="M24.5812 22.6389C25.5373 22.6389 26.34 23.4718 26.3092 24.4967C26.3092 25.4897 25.5067 26.3225 24.5194 26.2905C23.5633 26.2905 22.7917 25.4578 22.7917 24.465C22.7917 23.9844 22.9766 23.5357 23.3169 23.1838C23.6557 22.8311 24.1181 22.6389 24.5812 22.6389ZM25.26 21.5816V19.6599C25.26 19.4357 25.1676 19.2437 24.9825 19.1473C24.705 18.9872 24.3654 19.0834 24.2106 19.3717C24.1487 19.4677 24.1181 19.5639 24.1487 19.692V21.5499C22.6063 21.8059 21.5265 23.3119 21.7742 24.9454V24.9774C21.8977 25.7456 22.2982 26.4506 22.9153 26.8987L16.3441 41.5372C16.0976 42.0502 16.1283 42.6904 16.4677 43.1709C16.9606 43.9074 17.9178 44.0996 18.6266 43.5874C18.8743 43.427 19.0591 43.1709 19.1823 42.9146L23.5633 33.177C23.8408 32.5365 24.5812 32.2481 25.2292 32.5684C25.476 32.6966 25.6916 32.921 25.8152 33.177L30.2886 42.8186C30.6592 43.6192 31.5842 43.9395 32.3561 43.5549C33.1267 43.1709 33.4356 42.2098 33.0651 41.409L26.3092 26.835C27.543 25.8097 27.7592 23.9203 26.7714 22.6389C26.4019 22.1263 25.8771 21.774 25.26 21.5816Z" fill="#073042"/>
<path d="M29.3017 12.8055C28.8384 12.8055 28.4683 12.4528 28.4683 11.9726C28.4683 11.7484 28.5605 11.4922 28.7149 11.3319C29.0544 11.0119 29.5483 11.0119 29.8877 11.3319C30.0416 11.4922 30.1342 11.7163 30.1342 11.9406C30.1035 12.4211 29.7641 12.7734 29.3017 12.8055ZM20.1697 12.7734C19.7062 12.7734 19.3366 12.3891 19.3366 11.9406C19.3366 11.7163 19.4295 11.4922 19.5831 11.3319C19.8609 10.9798 20.3861 10.9155 20.7249 11.2043H20.7559C21.0949 11.5243 21.1256 12.0686 20.8177 12.4211L20.7249 12.5488C20.571 12.7091 20.3554 12.8055 20.1386 12.8055L20.1697 12.7734ZM29.5483 7.61625L31.1833 4.6695C31.2757 4.50937 31.2141 4.31719 31.0909 4.18912C30.9366 4.125 30.7826 4.15706 30.6902 4.28531L28.9929 7.32806C26.2783 6.07894 23.1934 6.07894 20.5093 7.32806L18.8433 4.31719C18.7816 4.22119 18.6579 4.125 18.5341 4.125C18.411 4.125 18.2874 4.18912 18.2253 4.31719C18.1638 4.41337 18.1638 4.57331 18.2253 4.6695L19.8919 7.61625C16.9914 9.24937 15.1096 12.3251 14.8327 15.7202H34.6382C34.392 12.2933 32.4789 9.24937 29.5791 7.61625" fill="#3DDC84"/>
<path d="M37.7569 22.0948H36.4611C36.399 22.1263 36.3375 22.1904 36.3375 22.2864V43.5874C36.3375 43.6832 36.399 43.7473 36.4922 43.7473H37.8493C39.4226 43.7473 40.6875 42.4018 40.6875 40.8005V19.1156C40.6875 20.7491 39.4226 22.0625 37.8493 22.0625H37.7569V22.0948Z" fill="#073042"/>
</svg>
