<svg width="49" height="48" viewBox="0 0 49 48" fill="none" xmlns="http://www.w3.org/2000/svg">
<g filter="url(#filter0_d_15_24)">
<path d="M25.4944 36.7794C31.0586 36.7794 34.4117 34.0549 34.4117 29.5613C34.4117 26.1643 32.0194 23.7052 28.4668 23.3158V23.1744C31.0768 22.7498 33.1249 20.3259 33.1249 17.6192C33.1249 13.7624 30.0801 11.25 25.44 11.25H15V36.7794H25.4944ZM19.06 14.4876H24.4613C27.3975 14.4876 29.0649 15.7968 29.0649 18.1675C29.0649 20.6976 27.1256 22.1128 23.6094 22.1128H19.06V14.4876ZM19.06 33.5419V25.1383H24.4249C28.2675 25.1383 30.2612 26.5536 30.2612 29.3136C30.2612 32.0734 28.3219 33.5419 24.6606 33.5419H19.06Z" fill="url(#paint0_linear_15_24)"/>
<path d="M25.4944 36.7794C31.0586 36.7794 34.4117 34.0549 34.4117 29.5613C34.4117 26.1643 32.0194 23.7052 28.4668 23.3158V23.1744C31.0768 22.7498 33.1249 20.3259 33.1249 17.6192C33.1249 13.7624 30.0801 11.25 25.44 11.25H15V36.7794H25.4944ZM19.06 14.4876H24.4613C27.3975 14.4876 29.0649 15.7968 29.0649 18.1675C29.0649 20.6976 27.1256 22.1128 23.6094 22.1128H19.06V14.4876ZM19.06 33.5419V25.1383H24.4249C28.2675 25.1383 30.2612 26.5536 30.2612 29.3136C30.2612 32.0734 28.3219 33.5419 24.6606 33.5419H19.06Z" stroke="white" stroke-width="0.375"/>
</g>
<defs>
<filter id="filter0_d_15_24" x="11.8125" y="8.8125" width="25.7867" height="31.9044" filterUnits="userSpaceOnUse" color-interpolation-filters="sRGB">
<feFlood flood-opacity="0" result="BackgroundImageFix"/>
<feColorMatrix in="SourceAlpha" type="matrix" values="0 0 0 0 0 0 0 0 0 0 0 0 0 0 0 0 0 0 127 0" result="hardAlpha"/>
<feOffset dy="0.75"/>
<feGaussianBlur stdDeviation="1.5"/>
<feColorMatrix type="matrix" values="0 0 0 0 0 0 0 0 0 0 0 0 0 0 0 0 0 0 0.15 0"/>
<feBlend mode="normal" in2="BackgroundImageFix" result="effect1_dropShadow_15_24"/>
<feBlend mode="normal" in="SourceGraphic" in2="effect1_dropShadow_15_24" result="shape"/>
</filter>
<linearGradient id="paint0_linear_15_24" x1="16.8362" y1="12.9304" x2="28.6014" y2="32.8283" gradientUnits="userSpaceOnUse">
<stop stop-color="white"/>
<stop offset="1" stop-color="#F1E5FC"/>
</linearGradient>
</defs>
</svg>
