<svg width="24" height="24" viewBox="0 0 24 24" fill="none" xmlns="http://www.w3.org/2000/svg">
<path d="M12 24C10.34 24 8.78 23.685 7.32 23.055C5.86 22.425 4.59 21.57 3.51 20.49C2.43 19.41 1.575 18.14 0.945 16.68C0.315 15.22 0 13.66 0 12C0 10.34 0.315 8.78 0.945 7.32C1.575 5.86 2.43 4.59 3.51 3.51C4.59 2.43 5.86 1.575 7.32 0.945C8.78 0.315 10.34 0 12 0C13.66 0 15.22 0.315 16.68 0.945C18.14 1.575 19.41 2.43 20.49 3.51C21.57 4.59 22.425 5.86 23.055 7.32C23.685 8.78 24 10.34 24 12V13.59C24 14.71 23.605 15.655 22.815 16.425C22.025 17.195 21.06 17.58 19.92 17.58C19.2 17.58 18.52 17.405 17.88 17.055C17.24 16.705 16.75 16.21 16.41 15.57C15.89 16.25 15.24 16.755 14.46 17.085C13.68 17.415 12.86 17.58 12 17.58C10.44 17.58 9.115 17.04 8.025 15.96C6.935 14.88 6.39 13.56 6.39 12C6.39 10.44 6.935 9.11 8.025 8.01C9.115 6.91 10.44 6.36 12 6.36C13.56 6.36 14.885 6.91 15.975 8.01C17.065 9.11 17.61 10.44 17.61 12V13.59C17.61 14.21 17.835 14.73 18.285 15.15C18.735 15.57 19.28 15.78 19.92 15.78C20.54 15.78 21.075 15.57 21.525 15.15C21.975 14.73 22.2 14.21 22.2 13.59V12C22.2 9.16 21.21 6.75 19.23 4.77C17.25 2.79 14.84 1.8 12 1.8C9.16 1.8 6.75 2.79 4.77 4.77C2.79 6.75 1.8 9.16 1.8 12C1.8 14.84 2.79 17.25 4.77 19.23C6.75 21.21 9.16 22.2 12 22.2H18.42V24H12ZM12 15.78C13.06 15.78 13.96 15.415 14.7 14.685C15.44 13.955 15.81 13.06 15.81 12C15.81 10.92 15.44 10.01 14.7 9.27C13.96 8.53 13.06 8.16 12 8.16C10.94 8.16 10.04 8.53 9.3 9.27C8.56 10.01 8.19 10.92 8.19 12C8.19 13.06 8.56 13.955 9.3 14.685C10.04 15.415 10.94 15.78 12 15.78Z" fill="#AEAEAE"/>
</svg>
