<svg width="20" height="30" viewBox="0 0 20 30" fill="none" xmlns="http://www.w3.org/2000/svg">
<g style="mix-blend-mode:luminosity">
<mask id="mask0_16_28" style="mask-type:luminance" maskUnits="userSpaceOnUse" x="0" y="0" width="20" height="30">
<path d="M20 0H0V29.994H20V0Z" fill="white"/>
</mask>
<g mask="url(#mask0_16_28)">
<path d="M5.001 29.994C7.76049 29.994 10 27.7545 10 24.9951V19.996H5.001C2.24155 19.996 0.00199127 22.2356 0.00199127 24.9951C0.00199127 27.7545 2.24155 29.994 5.001 29.994Z" fill="#0ACF83"/>
<path d="M0.00199127 14.9969C0.00199127 12.2375 2.24155 9.99792 5.001 9.99792H10V19.9959H5.001C2.24155 19.9959 0.00199127 17.7564 0.00199127 14.9969Z" fill="#A259FF"/>
<path d="M0.00199127 4.999C0.00199127 2.23955 2.24155 0 5.001 0H10V9.99801H5.001C2.24155 9.99801 0.00199127 7.75844 0.00199127 4.999Z" fill="#F24E1E"/>
<path d="M9.99999 0H14.9989C17.7584 0 19.998 2.23955 19.998 4.999C19.998 7.75844 17.7584 9.99801 14.9989 9.99801H9.99999V0Z" fill="#FF7262"/>
<path d="M19.998 14.9969C19.998 17.7564 17.7584 19.9959 14.9989 19.9959C12.2395 19.9959 9.99999 17.7564 9.99999 14.9969C9.99999 12.2375 12.2395 9.99792 14.9989 9.99792C17.7584 9.99792 19.998 12.2375 19.998 14.9969Z" fill="#1ABCFE"/>
</g>
</g>
</svg>
