<svg width="49" height="48" viewBox="0 0 49 48" fill="none" xmlns="http://www.w3.org/2000/svg">
<path d="M24.2502 5.625C13.8961 5.625 5.5 14.0195 5.5 24.3752C5.5 32.6595 10.8725 39.6878 18.3225 42.1671C19.2595 42.3407 19.6036 41.7604 19.6036 41.2652C19.6036 40.818 19.5861 39.3411 19.5781 37.7743C14.3618 38.9085 13.2611 35.562 13.2611 35.562C12.4082 33.3947 11.1793 32.8185 11.1793 32.8185C9.47806 31.6547 11.3075 31.6787 11.3075 31.6787C13.1903 31.8109 14.1817 33.6109 14.1817 33.6109C15.8541 36.4774 18.5681 35.6486 19.6381 35.1696C19.8064 33.9576 20.2922 33.1305 20.8285 32.6623C16.6638 32.1881 12.2859 30.5803 12.2859 23.3959C12.2859 21.3488 13.0183 19.6761 14.2178 18.363C14.0231 17.8908 13.3813 15.9837 14.3994 13.401C14.3994 13.401 15.9739 12.8971 19.5571 15.323C21.0528 14.9075 22.6566 14.6992 24.2502 14.6921C25.8436 14.6992 27.4489 14.9075 28.9473 15.323C32.5261 12.8971 34.0984 13.401 34.0984 13.401C35.119 15.9837 34.477 17.8908 34.2822 18.363C35.4844 19.6761 36.2119 21.3488 36.2119 23.3959C36.2119 30.5976 31.8256 32.1833 27.6503 32.6473C28.3229 33.2293 28.9221 34.3703 28.9221 36.1196C28.9221 38.6284 28.9004 40.6476 28.9004 41.2652C28.9004 41.7641 29.2379 42.3488 30.1883 42.1646C37.6343 39.6825 43 32.6567 43 24.3752C43 14.0195 34.6051 5.625 24.2502 5.625ZM12.5225 32.3349C12.4812 32.4281 12.3347 32.4561 12.2012 32.3921C12.0652 32.331 11.9888 32.2039 12.0329 32.1105C12.0733 32.0145 12.2201 31.9879 12.3558 32.0522C12.4921 32.1133 12.5697 32.2416 12.5225 32.3349ZM13.4448 33.1579C13.3554 33.2409 13.1806 33.2023 13.062 33.0713C12.9394 32.9406 12.9164 32.7658 13.007 32.6816C13.0993 32.5988 13.2688 32.6376 13.3917 32.7683C13.5144 32.9006 13.5383 33.0741 13.4448 33.1579ZM14.0776 34.2109C13.9627 34.2908 13.7748 34.2159 13.6587 34.0491C13.5438 33.8824 13.5438 33.6825 13.6612 33.6023C13.7776 33.5222 13.9627 33.5942 14.0804 33.7598C14.1949 33.9293 14.1949 34.1293 14.0776 34.2109ZM15.1477 35.4304C15.0449 35.5436 14.826 35.5133 14.6658 35.3586C14.5018 35.2074 14.4562 34.9929 14.5593 34.8795C14.6633 34.7659 14.8834 34.7979 15.0449 34.9513C15.2076 35.1021 15.2573 35.3183 15.1477 35.4304ZM16.5306 35.8419C16.4853 35.9889 16.2745 36.0557 16.0621 35.9933C15.85 35.9289 15.7113 35.757 15.7541 35.6085C15.7982 35.4608 16.0099 35.3912 16.2239 35.4579C16.4356 35.5219 16.5747 35.6927 16.5306 35.8419ZM18.1045 36.0167C18.1098 36.1712 17.9297 36.2994 17.7068 36.3023C17.4826 36.3073 17.3013 36.1821 17.2988 36.03C17.2988 35.8738 17.4749 35.7469 17.699 35.7431C17.922 35.7388 18.1045 35.8629 18.1045 36.0167ZM19.6506 35.9574C19.6774 36.1082 19.5226 36.2633 19.3011 36.3045C19.0834 36.3443 18.8819 36.2511 18.8543 36.1014C18.8273 35.9468 18.985 35.7919 19.2023 35.7518C19.4241 35.7133 19.6225 35.8041 19.6506 35.9574Z" fill="white"/>
</svg>
