<svg width="44" height="44" viewBox="0 0 44 44" fill="none" xmlns="http://www.w3.org/2000/svg">
<mask id="path-1-inside-1_11_43" fill="white">
<path d="M33.6875 0H10.3125C4.61706 0 0 4.61706 0 10.3125V33.6875C0 39.3829 4.61706 44 10.3125 44H33.6875C39.3829 44 44 39.3829 44 33.6875V10.3125C44 4.61706 39.3829 0 33.6875 0Z"/>
</mask>
<path d="M33.6875 0H10.3125C4.61706 0 0 4.61706 0 10.3125V33.6875C0 39.3829 4.61706 44 10.3125 44H33.6875C39.3829 44 44 39.3829 44 33.6875V10.3125C44 4.61706 39.3829 0 33.6875 0Z" stroke="#02D9DA" stroke-width="2" mask="url(#path-1-inside-1_11_43)"/>
<mask id="mask0_11_43" style="mask-type:luminance" maskUnits="userSpaceOnUse" x="4" y="9" width="36" height="26">
<path d="M39.1875 9.10938H4.8125V34.875H39.1875V9.10938Z" fill="white"/>
</mask>
<g mask="url(#mask0_11_43)">
<path d="M34.3934 23.9186C33.1947 23.9248 32.1532 24.2135 31.2809 24.6401C30.9609 24.0064 30.6408 23.4416 30.5843 23.0274C30.5216 22.5443 30.4463 22.2493 30.5216 21.672C30.5968 21.0947 30.9358 20.2728 30.9294 20.21C30.9232 20.1471 30.8541 19.8524 30.1639 19.846C29.4736 19.8398 28.8776 19.9778 28.8085 20.1599C28.7394 20.3417 28.6077 20.7559 28.5199 21.1827C28.4006 21.8102 27.1392 24.0504 26.4177 25.2238C26.1855 24.7658 25.9847 24.3641 25.9407 24.0441C25.878 23.5609 25.8027 23.266 25.878 22.6887C25.9533 22.1113 26.2922 21.2893 26.2859 21.2265C26.2797 21.1638 26.2106 20.8688 25.5203 20.8627C24.8301 20.8563 24.2338 20.9943 24.1649 21.1763C24.0958 21.3583 24.0206 21.7851 23.8762 22.1992C23.732 22.6134 22.0565 26.3534 21.6172 27.3197C21.3914 27.8153 21.1968 28.2107 21.0588 28.4805C21.0588 28.4805 21.0524 28.4994 21.0337 28.5307C20.9144 28.7629 20.8453 28.8884 20.8453 28.8884C20.8453 28.8884 20.8453 28.8884 20.8453 28.8947C20.7513 29.0642 20.6508 29.2209 20.6006 29.2209C20.5629 29.2209 20.494 28.7693 20.6131 28.1543C20.8642 26.8553 21.4603 24.8347 21.4541 24.7658C21.4541 24.7281 21.567 24.3766 21.065 24.1946C20.5755 24.0126 20.3998 24.3139 20.3558 24.3139C20.312 24.3139 20.2806 24.4206 20.2806 24.4206C20.2806 24.4206 20.8266 22.149 19.239 22.149C18.2474 22.149 16.8795 23.2345 16.2018 24.2135C15.7751 24.4457 14.8652 24.9414 13.8926 25.4748C13.5223 25.6819 13.1396 25.889 12.7819 26.0835C12.7568 26.0584 12.7317 26.027 12.7066 26.0019C10.7864 23.9499 7.23469 22.5005 7.38529 19.7456C7.44177 18.7415 7.78689 16.1061 14.2063 12.9058C19.4899 10.3016 23.6943 11.0232 24.4222 12.6234C25.4638 14.9075 22.1695 19.1494 16.7101 19.7644C14.6268 19.9966 13.5349 19.1934 13.2588 18.8923C12.9701 18.5784 12.9262 18.5597 12.8195 18.6224C12.6438 18.7165 12.7568 18.9988 12.8195 19.162C12.9827 19.5887 13.6541 20.3417 14.7899 20.7119C15.7939 21.0383 18.2349 21.2203 21.1905 20.0782C24.4975 18.7981 27.0828 15.2401 26.3235 12.2594C25.5643 9.23483 20.5442 8.23708 15.7939 9.92508C12.9701 10.9291 9.90788 12.5104 7.70532 14.5687C5.08861 17.016 4.67444 19.1432 4.84387 20.0342C5.45255 23.1969 9.81376 25.2551 11.5582 26.78C11.4704 26.8302 11.3888 26.8742 11.3198 26.9118C10.4475 27.3448 7.12173 29.0829 6.29342 30.9216C5.35216 33.0049 6.44403 34.4984 7.16567 34.6991C9.40587 35.3204 11.7088 34.2034 12.945 32.3585C14.1812 30.5136 14.0306 28.1166 13.4596 27.0185C13.4533 27.006 13.447 26.9934 13.4345 26.9809C13.6604 26.8491 13.8926 26.711 14.1185 26.5792C14.564 26.3157 15.0033 26.071 15.3798 25.8701C15.1664 26.4538 15.0095 27.1502 14.9342 28.1543C14.8401 29.334 15.3233 30.8651 15.9571 31.4675C16.2395 31.731 16.572 31.7374 16.7854 31.7374C17.5259 31.7374 17.8585 31.1224 18.2287 30.3945C18.6804 29.5033 19.0884 28.468 19.0884 28.468C19.0884 28.468 18.58 31.2668 19.9605 31.2668C20.4626 31.2668 20.9708 30.6142 21.1968 30.2816C21.1968 30.2878 21.1968 30.2878 21.1968 30.2878C21.1968 30.2878 21.2094 30.269 21.2345 30.225C21.2846 30.1434 21.3159 30.0932 21.3159 30.0932C21.3159 30.0932 21.3159 30.087 21.3159 30.0807C21.5168 29.7293 21.9685 28.9324 22.6401 27.6082C23.506 25.9015 24.3406 23.768 24.3406 23.768C24.3406 23.768 24.4159 24.2888 24.6732 25.1547C24.8237 25.6631 25.1376 26.2215 25.3885 26.7612C25.1878 27.0436 25.0623 27.2004 25.0623 27.2004C25.0623 27.2004 25.0623 27.2004 25.0685 27.2067C24.9054 27.42 24.7297 27.6522 24.5351 27.8781C23.8511 28.694 23.0354 29.629 22.9224 29.8988C22.7906 30.2188 22.8221 30.4509 23.073 30.6392C23.255 30.7773 23.5812 30.796 23.9138 30.7773C24.5288 30.7333 24.9619 30.5827 25.1752 30.4885C25.5078 30.3694 25.8969 30.1874 26.2608 29.9175C26.9323 29.4219 27.3401 28.7127 27.3025 27.7777C27.2836 27.2631 27.1141 26.7487 26.9072 26.2654C26.9699 26.1775 27.0263 26.0897 27.089 26.0019C28.1497 24.4519 28.9716 22.7514 28.9716 22.7514C28.9716 22.7514 29.0469 23.2722 29.3042 24.1382C29.4296 24.5774 29.6869 25.0543 29.9129 25.5188C28.9152 26.3283 28.3002 27.2695 28.0806 27.8844C27.6853 29.0265 27.9928 29.541 28.5763 29.6603C28.8399 29.7168 29.2163 29.5913 29.4925 29.472C29.8439 29.3591 30.2581 29.1646 30.6534 28.8758C31.3247 28.3801 31.9711 27.6899 31.9335 26.7549C31.9146 26.3283 31.8017 25.9077 31.6448 25.4998C32.4919 25.1485 33.5839 24.954 34.9769 25.1171C37.9639 25.4686 38.5538 27.3322 38.4407 28.1166C38.3278 28.9009 37.7003 29.3277 37.4931 29.4595C37.2862 29.5913 37.2171 29.6352 37.236 29.7293C37.2611 29.8674 37.3615 29.861 37.5371 29.8359C37.7819 29.7921 39.1059 29.2022 39.1624 27.759C39.2566 25.9141 37.4995 23.8997 34.3934 23.9186ZM11.3511 31.6872C10.3597 32.7664 8.97917 33.1744 8.38304 32.8293C7.74298 32.4589 7.99398 30.8651 9.21134 29.723C9.95181 29.0265 10.9056 28.3801 11.5394 27.9848C11.6837 27.897 11.8971 27.7715 12.1544 27.6146C12.1983 27.5895 12.2234 27.577 12.2234 27.577C12.2736 27.5455 12.3238 27.5142 12.374 27.4828C12.8195 29.1144 12.3928 30.5514 11.3511 31.6872ZM18.5675 26.78C18.2223 27.621 17.5008 29.7732 17.0615 29.6541C16.685 29.5535 16.4528 27.9221 16.9862 26.3094C17.2561 25.4998 17.827 24.5336 18.1596 24.157C18.6993 23.5546 19.2954 23.3538 19.4397 23.5986C19.6218 23.9186 18.7809 26.2528 18.5675 26.78ZM24.5226 29.629C24.3782 29.7043 24.2402 29.7544 24.1775 29.7168C24.1335 29.6917 24.2402 29.5913 24.2402 29.5913C24.2402 29.5913 24.987 28.788 25.2819 28.4241C25.4512 28.2107 25.6522 27.9597 25.8655 27.6773C25.8655 27.7024 25.8655 27.7339 25.8655 27.759C25.8655 28.7191 24.9368 29.3653 24.5226 29.629ZM29.116 28.5809C29.0092 28.5056 29.0281 28.2547 29.3858 27.4702C29.5238 27.1627 29.8502 26.6483 30.4086 26.1525C30.4714 26.3534 30.5154 26.5478 30.509 26.7298C30.5028 27.941 29.6367 28.3927 29.116 28.5809Z" fill="white"/>
</g>
</svg>
