<svg width="44" height="44" viewBox="0 0 44 44" fill="none" xmlns="http://www.w3.org/2000/svg">
<mask id="path-1-inside-1_11_6" fill="white">
<path d="M33.6875 0H10.3125C4.61706 0 0 4.61706 0 10.3125V33.6875C0 39.3829 4.61706 44 10.3125 44H33.6875C39.3829 44 44 39.3829 44 33.6875V10.3125C44 4.61706 39.3829 0 33.6875 0Z"/>
</mask>
<path d="M33.6875 0H10.3125C4.61706 0 0 4.61706 0 10.3125V33.6875C0 39.3829 4.61706 44 10.3125 44H33.6875C39.3829 44 44 39.3829 44 33.6875V10.3125C44 4.61706 39.3829 0 33.6875 0Z" stroke="#02D9DA" stroke-width="2" mask="url(#path-1-inside-1_11_6)"/>
<path d="M8.56919 32.8058L11.9364 30.7681C12.586 31.9198 13.1769 32.8944 14.5943 32.8944C15.953 32.8944 16.8096 32.3629 16.8096 30.2956V16.2366H20.9446V30.354C20.9446 34.6367 18.4342 36.5861 14.7715 36.5861C11.4638 36.5861 9.54376 34.873 8.56912 32.8055" fill="white"/>
<path d="M23.1905 32.3627L26.5572 30.4134C27.4435 31.8608 28.5954 32.924 30.6332 32.924C32.3466 32.924 33.4391 32.0674 33.4391 30.8859C33.4391 29.4683 32.3167 28.9661 30.4264 28.1394L29.3929 27.6961C26.4097 26.4263 24.4307 24.8313 24.4307 21.4643C24.4307 18.3629 26.7937 16 30.4857 16C33.1144 16 35.0047 16.9157 36.3632 19.3081L33.1438 21.3756C32.4348 20.1056 31.6672 19.6035 30.4857 19.6035C29.2747 19.6035 28.5068 20.3715 28.5068 21.3756C28.5068 22.616 29.2747 23.1182 31.0467 23.8863L32.0804 24.3292C35.5951 25.8357 37.574 27.3713 37.574 30.8268C37.574 34.5486 34.6501 36.5863 30.7219 36.5863C26.8824 36.5863 24.4014 34.7552 23.1905 32.3627Z" fill="white"/>
</svg>
