<svg width="48" height="48" viewBox="0 0 48 48" fill="none" xmlns="http://www.w3.org/2000/svg">
<path d="M12.3125 2.5H35.6875C41.1068 2.5 45.5 6.89321 45.5 12.3125V35.6875C45.5 41.1068 41.1068 45.5 35.6875 45.5H12.3125C6.89321 45.5 2.5 41.1068 2.5 35.6875V12.3125C2.5 6.89321 6.89321 2.5 12.3125 2.5Z" stroke="#02D9DA"/>
<g filter="url(#filter0_d_11_50)">
<path d="M24.4944 36.5294C30.0586 36.5294 33.4117 33.8049 33.4117 29.3113C33.4117 25.9143 31.0194 23.4552 27.4668 23.0658V22.9244C30.0768 22.4998 32.1249 20.0759 32.1249 17.3692C32.1249 13.5124 29.0801 11 24.44 11H14V36.5294H24.4944ZM18.06 14.2376H23.4613C26.3975 14.2376 28.0649 15.5468 28.0649 17.9175C28.0649 20.4476 26.1256 21.8628 22.6094 21.8628H18.06V14.2376ZM18.06 33.2919V24.8883H23.4249C27.2675 24.8883 29.2612 26.3036 29.2612 29.0636C29.2612 31.8234 27.3219 33.2919 23.6606 33.2919H18.06Z" fill="url(#paint0_linear_11_50)"/>
<path d="M24.4944 36.5294C30.0586 36.5294 33.4117 33.8049 33.4117 29.3113C33.4117 25.9143 31.0194 23.4552 27.4668 23.0658V22.9244C30.0768 22.4998 32.1249 20.0759 32.1249 17.3692C32.1249 13.5124 29.0801 11 24.44 11H14V36.5294H24.4944ZM18.06 14.2376H23.4613C26.3975 14.2376 28.0649 15.5468 28.0649 17.9175C28.0649 20.4476 26.1256 21.8628 22.6094 21.8628H18.06V14.2376ZM18.06 33.2919V24.8883H23.4249C27.2675 24.8883 29.2612 26.3036 29.2612 29.0636C29.2612 31.8234 27.3219 33.2919 23.6606 33.2919H18.06Z" stroke="white" stroke-width="0.375"/>
</g>
<defs>
<filter id="filter0_d_11_50" x="10.8125" y="8.5625" width="25.7867" height="31.9045" filterUnits="userSpaceOnUse" color-interpolation-filters="sRGB">
<feFlood flood-opacity="0" result="BackgroundImageFix"/>
<feColorMatrix in="SourceAlpha" type="matrix" values="0 0 0 0 0 0 0 0 0 0 0 0 0 0 0 0 0 0 127 0" result="hardAlpha"/>
<feOffset dy="0.75"/>
<feGaussianBlur stdDeviation="1.5"/>
<feColorMatrix type="matrix" values="0 0 0 0 0 0 0 0 0 0 0 0 0 0 0 0 0 0 0.15 0"/>
<feBlend mode="normal" in2="BackgroundImageFix" result="effect1_dropShadow_11_50"/>
<feBlend mode="normal" in="SourceGraphic" in2="effect1_dropShadow_11_50" result="shape"/>
</filter>
<linearGradient id="paint0_linear_11_50" x1="15.8362" y1="12.6804" x2="27.6014" y2="32.5783" gradientUnits="userSpaceOnUse">
<stop stop-color="white"/>
<stop offset="1" stop-color="#F1E5FC"/>
</linearGradient>
</defs>
</svg>
