<svg width="45" height="45" viewBox="0 0 45 45" fill="none" xmlns="http://www.w3.org/2000/svg">
<mask id="path-1-inside-1_9_29" fill="white">
<path d="M33.7776 0.514648H10.3401C4.62941 0.514648 0 5.14406 0 10.8547V34.2922C0 40.0029 4.62941 44.6323 10.3401 44.6323H33.7776C39.4882 44.6323 44.1176 40.0029 44.1176 34.2922V10.8547C44.1176 5.14406 39.4882 0.514648 33.7776 0.514648Z"/>
</mask>
<path d="M33.7776 0.514648H10.3401C4.62941 0.514648 0 5.14406 0 10.8547V34.2922C0 40.0029 4.62941 44.6323 10.3401 44.6323H33.7776C39.4882 44.6323 44.1176 40.0029 44.1176 34.2922V10.8547C44.1176 5.14406 39.4882 0.514648 33.7776 0.514648Z" stroke="#02D9DA" stroke-width="2" mask="url(#path-1-inside-1_9_29)"/>
<path d="M8.27203 7.06348L9.7558 23.7098H28.835L28.1948 30.8496L22.0517 32.5106L15.9202 30.852L15.5103 26.2676H9.98485L10.775 35.1051L22.0504 38.2367L33.34 35.1051L34.8536 18.2058H14.7904L14.2867 12.5687H35.3356H35.3525L35.8456 7.06348H8.27203Z" fill="white"/>
<path d="M22.0588 7.06348H8.27203L9.7558 23.7098H22.0588V18.2058H14.7904L14.2867 12.5687H22.0588V7.06348Z" fill="#EBEBEB"/>
<path d="M22.0588 32.5079L22.0518 32.5103L15.9203 30.8518L15.5103 26.2673H9.98486L10.775 35.1048L22.0504 38.2365L22.0588 38.2341V32.5079Z" fill="#EBEBEB"/>
</svg>
