<svg width="45" height="45" viewBox="0 0 45 45" fill="none" xmlns="http://www.w3.org/2000/svg">
<g clip-path="url(#clip0_9_31)">
<mask id="path-1-inside-1_9_31" fill="white">
<path d="M33.8217 0.514648H10.3842C4.67354 0.514648 0.0441284 5.14406 0.0441284 10.8547V34.2922C0.0441284 40.0029 4.67354 44.6323 10.3842 44.6323H33.8217C39.5324 44.6323 44.1618 40.0029 44.1618 34.2922V10.8547C44.1618 5.14406 39.5324 0.514648 33.8217 0.514648Z"/>
</mask>
<path d="M33.8217 0.514648H10.3842C4.67354 0.514648 0.0441284 5.14406 0.0441284 10.8547V34.2922C0.0441284 40.0029 4.67354 44.6323 10.3842 44.6323H33.8217C39.5324 44.6323 44.1618 40.0029 44.1618 34.2922V10.8547C44.1618 5.14406 39.5324 0.514648 33.8217 0.514648Z" stroke="#02D9DA" stroke-width="2" mask="url(#path-1-inside-1_9_31)"/>
<path d="M9.30756 18.2051L9.80092 23.7098H22.1195V18.2051H9.30756Z" fill="#EBEBEB"/>
<path d="M22.1193 7.06348H22.1003H8.31616L8.81655 12.5682H22.1193V7.06348Z" fill="#EBEBEB"/>
<path d="M22.1193 38.2286V32.5015L22.0952 32.5078L15.9646 30.8526L15.5727 26.4622H12.5937H10.0469L10.8181 35.1054L22.094 38.2357L22.1193 38.2286Z" fill="#EBEBEB"/>
<path d="M28.8788 23.7098L28.2398 30.8489L22.1003 32.5061V38.2329L33.3853 35.1054L33.468 34.1753L34.7616 19.6834L34.8958 18.2051L35.8897 7.06348H22.1003V12.5682H29.8569L29.3561 18.2051H22.1003V23.7098H28.8788Z" fill="white"/>
</g>
<defs>
<clipPath id="clip0_9_31">
<rect width="44.1176" height="44.1176" fill="white" transform="translate(0.0441284 0.514648)"/>
</clipPath>
</defs>
</svg>
