<svg width="44" height="44" viewBox="0 0 44 44" fill="none" xmlns="http://www.w3.org/2000/svg">
<path d="M10.3125 0.5H33.6875C39.1068 0.5 43.5 4.89321 43.5 10.3125V33.6875C43.5 39.1068 39.1068 43.5 33.6875 43.5H10.3125C4.89321 43.5 0.5 39.1068 0.5 33.6875V10.3125C0.5 4.89321 4.89321 0.5 10.3125 0.5Z" stroke="#02D9DA"/>
<path d="M22.0002 25.2572C23.7712 25.2572 25.2067 23.8216 25.2067 22.0507C25.2067 20.2799 23.7712 18.8442 22.0002 18.8442C20.2293 18.8442 18.7937 20.2799 18.7937 22.0507C18.7937 23.8216 20.2293 25.2572 22.0002 25.2572Z" fill="white"/>
<path fill-rule="evenodd" clip-rule="evenodd" d="M22.0003 15.5312C26.3055 15.5312 30.3048 16.149 33.3204 17.1871C36.9536 18.4379 39.1875 20.3339 39.1875 22.0508C39.1875 23.8398 36.8201 25.854 32.9184 27.1467C29.9686 28.124 26.087 28.6341 22.0003 28.6341C17.8104 28.6341 13.8426 28.1552 10.8596 27.1359C7.08563 25.8459 4.8125 23.8058 4.8125 22.0508C4.8125 20.3478 6.9454 18.4665 10.5276 17.2176C13.5544 16.1624 17.6524 15.5312 21.9997 15.5312H22.0003Z" stroke="white" stroke-width="1.46196"/>
<path fill-rule="evenodd" clip-rule="evenodd" d="M16.3249 18.8097C18.4757 15.0803 21.0086 11.9244 23.4145 9.83075C26.313 7.30823 29.0716 6.32033 30.5587 7.1779C32.1085 8.07165 32.6707 11.1288 31.8414 15.1544C31.2149 18.198 29.7172 21.8152 27.6755 25.3555C25.5822 28.9852 23.1854 32.1831 20.8123 34.2573C17.8095 36.8821 14.9064 37.8321 13.3862 36.9554C11.911 36.1053 11.3469 33.3173 12.0546 29.5902C12.6525 26.4409 14.1531 22.5756 16.3242 18.8097H16.3249Z" stroke="white" stroke-width="1.46196"/>
<path fill-rule="evenodd" clip-rule="evenodd" d="M16.3302 25.3651C14.1734 21.6399 12.7049 17.8686 12.0919 14.7387C11.3541 10.9676 11.8758 8.08434 13.3616 7.22428C14.9099 6.32792 17.8392 7.36771 20.9127 10.0967C23.2365 12.1599 25.6226 15.2635 27.6701 18.8003C29.7694 22.4265 31.3428 26.1004 31.9548 29.1921C32.7293 33.1046 32.1025 36.094 30.5836 36.9732C29.1099 37.8264 26.4131 36.9232 23.5374 34.4485C21.1078 32.3578 18.5083 29.1274 16.3302 25.3651Z" stroke="white" stroke-width="1.46196"/>
</svg>
