<svg width="40" height="42" viewBox="0 0 40 42" fill="none" xmlns="http://www.w3.org/2000/svg">
<path d="M14.9805 34.2926C5.70872 36.9796 5.70872 29.8142 2 28.9185M27.961 39.6667V32.7341C28.0306 31.8799 27.9111 31.0212 27.6106 30.2151C27.31 29.4089 26.8353 28.6738 26.2179 28.0586C32.0406 27.4317 38.16 25.2999 38.16 15.5191C38.1595 13.018 37.1636 10.6129 35.3785 8.80144C36.2238 6.6133 36.164 4.19468 35.2116 2.048C35.2116 2.048 33.0234 1.42102 27.961 4.69922C23.7109 3.58646 19.2307 3.58646 14.9805 4.69922C9.91811 1.42102 7.72997 2.048 7.72997 2.048C6.77753 4.19468 6.71776 6.6133 7.56308 8.80144C5.76459 10.6263 4.76767 13.0532 4.78154 15.5728C4.78154 25.282 10.9009 27.4137 16.7236 28.1124C16.1135 28.7214 15.643 29.4477 15.3427 30.2439C15.0424 31.0402 14.919 31.8887 14.9805 32.7341V39.6667" stroke="#AEAEAE" stroke-width="3.01333" stroke-linecap="round" stroke-linejoin="round"/>
</svg>
