<svg width="48" height="48" viewBox="0 0 48 48" fill="none" xmlns="http://www.w3.org/2000/svg">
<path d="M23.1999 28.5624H15.7599L14.2399 33.2625C14.1999 33.4425 14.0399 33.5625 13.8599 33.5424H10.0999C9.87994 33.5424 9.81994 33.4224 9.87994 33.1824L16.3199 14.6425C16.3799 14.4425 16.4399 14.2225 16.5199 13.9825C16.5999 13.5625 16.6399 13.1225 16.6399 12.6825C16.6199 12.5825 16.6999 12.4825 16.7999 12.4625H16.8599H21.9799C22.14 12.4625 22.2199 12.5225 22.2399 12.6225L29.5399 33.2226C29.5999 33.4425 29.5399 33.5424 29.34 33.5424H25.1599C25.02 33.5625 24.8799 33.4626 24.84 33.3225L23.1999 28.5624ZM16.9199 24.5025H21.9999C21.8799 24.0825 21.72 23.5824 21.54 23.0625C21.36 22.5225 21.18 21.9426 21 21.3426C20.7999 20.7225 20.6199 20.1225 20.4199 19.5024C20.22 18.8826 20.04 18.3025 19.8799 17.7225C19.7199 17.1625 19.5799 16.6425 19.44 16.1625H19.3999C19.2199 17.0225 18.9999 17.8825 18.7199 18.7425C18.4199 19.7025 18.1199 20.7024 17.7999 21.7026C17.5199 22.7226 17.2199 23.6625 16.9199 24.5025Z" fill="#FF9A00"/>
<path d="M33.9999 15.9625C33.3399 15.9825 32.7 15.7225 32.22 15.2625C31.7601 14.7625 31.5201 14.1025 31.5399 13.4225C31.5201 12.7425 31.7799 12.1025 32.2599 11.6425C32.7399 11.1825 33.3801 10.9425 34.0401 10.9425C34.8201 10.9425 35.4201 11.1825 35.8599 11.6425C36.3 12.1225 36.54 12.7625 36.5199 13.4225C36.54 14.1025 36.3 14.7625 35.82 15.2625C35.3601 15.7425 34.68 16.0025 33.9999 15.9625ZM31.7601 33.3225V17.9225C31.7601 17.7225 31.8399 17.6425 32.0199 17.6425H35.9799C36.1599 17.6425 36.24 17.7425 36.24 17.9225V33.3225C36.24 33.5424 36.1599 33.6425 35.9799 33.6425H32.0601C31.86 33.6425 31.7601 33.5225 31.7601 33.3225Z" fill="#FF9A00"/>
</svg>
