<svg width="49" height="48" viewBox="0 0 49 48" fill="none" xmlns="http://www.w3.org/2000/svg">
<path d="M19.8064 34.2411C19.8064 34.2411 18.3665 35.1175 20.8086 35.3681C23.7576 35.7439 25.3168 35.6811 28.5724 35.0554C28.5724 35.0554 29.4488 35.6196 30.6386 36.0574C23.3121 39.1879 14.0454 35.8695 19.8064 34.2411ZM18.8672 30.1714C18.8672 30.1714 17.3016 31.3613 19.7436 31.6112C22.9363 31.9241 25.4419 31.9869 29.7623 31.1111C29.7623 31.1111 30.3264 31.7376 31.2651 32.0505C22.437 34.6802 12.5433 32.3005 18.8672 30.172V30.1714ZM36.1491 37.3095C36.1491 37.3095 37.2133 38.1859 34.9592 38.8751C30.7637 40.1273 17.3645 40.5036 13.6075 38.8751C12.2933 38.311 14.7974 37.4966 15.611 37.3723C16.4252 37.1845 16.8631 37.1845 16.8631 37.1845C15.4232 36.1825 7.28295 39.2507 12.7305 40.1336C27.6954 42.5762 40.0311 39.0694 36.1485 37.3159L36.1491 37.3095ZM20.4951 25.9131C20.4951 25.9131 13.6697 27.5415 18.0524 28.1044C19.9309 28.3543 23.625 28.2923 27.069 28.0416C29.8868 27.7915 32.7109 27.2903 32.7109 27.2903C32.7109 27.2903 31.7087 27.7286 31.0202 28.1666C24.0641 29.9841 10.727 29.17 14.5468 27.2914C17.8036 25.7258 20.4951 25.9131 20.4951 25.9131ZM32.7043 32.7383C39.7181 29.1064 36.4613 25.6001 34.2071 26.0387C33.6429 26.1638 33.393 26.2888 33.393 26.2888C33.393 26.2888 33.5807 25.9131 34.0193 25.7888C38.4647 24.2231 41.9717 30.4849 32.5794 32.9269C32.5794 32.9269 32.6423 32.8641 32.7043 32.739V32.7383ZM21.1836 42.6308C27.9461 43.0693 38.2776 42.3806 38.5283 39.1866C38.5283 39.1866 38.0282 40.4387 32.9558 41.3781C27.1954 42.4423 20.0565 42.3173 15.8617 41.628C15.8617 41.628 16.7381 42.3793 21.1841 42.63L21.1836 42.6308Z" fill="white"/>
<path d="M28.4409 5.25C28.4409 5.25 32.3229 9.19478 24.7468 15.1424C18.673 19.9635 23.3685 22.719 24.7468 25.8489C21.1778 22.6562 18.6114 19.8379 20.3636 17.208C22.9371 13.328 30.0116 11.4496 28.4409 5.25ZM26.4375 23.2204C28.2531 25.2866 25.9374 27.1652 25.9374 27.1652C25.9374 27.1652 30.5708 24.7866 28.4423 21.8426C26.5009 19.0249 24.9983 17.6472 33.1384 12.9504C33.1384 12.9504 20.3021 16.1432 26.4388 23.2191L26.4375 23.2204Z" fill="#F58219"/>
</svg>
