<svg width="48" height="48" viewBox="0 0 48 48" fill="none" xmlns="http://www.w3.org/2000/svg">
<path d="M8.00007 31.3336L11.6734 29.1106C12.382 30.367 13.0267 31.4301 14.5729 31.4301C16.0551 31.4301 16.9896 30.8504 16.9896 28.5951V13.258H21.5005V28.6589C21.5005 33.3308 18.7619 35.4574 14.7663 35.4574C11.1579 35.4574 9.06324 33.5886 8 31.3332" fill="#F1E5FC"/>
<path d="M23.9506 30.8502L27.6233 28.7238C28.5903 30.3027 29.8469 31.4626 32.0699 31.4626C33.9391 31.4626 35.1308 30.5281 35.1308 29.2392C35.1308 27.6927 33.9065 27.1448 31.8443 26.2429L30.7169 25.7594C27.4625 24.3741 25.3036 22.6341 25.3036 18.961C25.3036 15.5778 27.8813 13 31.909 13C34.7766 13 36.8388 13.999 38.3208 16.6088L34.8087 18.8643C34.0353 17.4788 33.1979 16.9311 31.909 16.9311C30.5879 16.9311 29.7501 17.7689 29.7501 18.8643C29.7501 20.2174 30.5879 20.7653 32.521 21.6033L33.6486 22.0864C37.4828 23.7299 39.6417 25.405 39.6417 29.1747C39.6417 33.2348 36.452 35.4578 32.1666 35.4578C27.9781 35.4578 25.2715 33.4602 23.9506 30.8502Z" fill="#F1E5FC"/>
</svg>
