<svg width="26" height="25" viewBox="0 0 26 25" fill="none" xmlns="http://www.w3.org/2000/svg">
<path d="M17.8 8.2002C19.7095 8.2002 21.5409 8.95876 22.8911 10.309C24.2414 11.6593 25 13.4906 25 15.4002V23.8002H20.2V15.4002C20.2 14.7637 19.9471 14.1532 19.497 13.7031C19.0469 13.2531 18.4365 13.0002 17.8 13.0002C17.1635 13.0002 16.553 13.2531 16.1029 13.7031C15.6528 14.1532 15.4 14.7637 15.4 15.4002V23.8002H10.6V15.4002C10.6 13.4906 11.3585 11.6593 12.7088 10.309C14.0591 8.95876 15.8904 8.2002 17.8 8.2002Z" stroke="#AEAEAE" stroke-width="2" stroke-linecap="round" stroke-linejoin="round"/>
<path d="M5.8 9.3999H1V23.7999H5.8V9.3999Z" stroke="#AEAEAE" stroke-width="2" stroke-linecap="round" stroke-linejoin="round"/>
<path d="M3.4 5.8C4.72548 5.8 5.8 4.72548 5.8 3.4C5.8 2.07452 4.72548 1 3.4 1C2.07452 1 1 2.07452 1 3.4C1 4.72548 2.07452 5.8 3.4 5.8Z" stroke="#AEAEAE" stroke-width="2" stroke-linecap="round" stroke-linejoin="round"/>
</svg>
