<svg width="49" height="48" viewBox="0 0 49 48" fill="none" xmlns="http://www.w3.org/2000/svg">
<path d="M11.05 33.3825V12.8025C11.05 12.6625 11.11 12.5825 11.25 12.5825C11.59 12.5825 11.91 12.5825 12.37 12.5625C12.85 12.5425 13.35 12.5425 13.89 12.5225C14.43 12.5025 15.01 12.5025 15.63 12.4825C16.25 12.4625 16.85 12.4625 17.45 12.4625C19.09 12.4625 20.4499 12.6625 21.5701 13.0825C22.57 13.4225 23.4901 13.9825 24.25 14.7225C24.8899 15.3625 25.39 16.1425 25.7101 17.0025C26.0101 17.8425 26.17 18.7025 26.17 19.6026C26.17 21.3225 25.7701 22.7425 24.97 23.8626C24.1699 24.9825 23.05 25.8225 21.7501 26.3025C20.3899 26.8026 18.89 26.9826 17.25 26.9826C16.77 26.9826 16.45 26.9826 16.25 26.9625C16.05 26.9425 15.77 26.9425 15.39 26.9425V33.3625C15.41 33.5025 15.31 33.6225 15.17 33.6426C15.15 33.6426 15.13 33.6426 15.09 33.6426H11.29C11.13 33.6426 11.05 33.5625 11.05 33.3825ZM15.41 16.4425V23.1625C15.69 23.1825 15.95 23.2026 16.19 23.2026H17.25C18.03 23.2026 18.81 23.0826 19.5499 22.8426C20.1901 22.6626 20.7499 22.2825 21.19 21.7825C21.61 21.2826 21.8101 20.6025 21.8101 19.7226C21.8299 19.1025 21.67 18.4825 21.3499 17.9425C21.01 17.4225 20.53 17.0225 19.9501 16.8025C19.21 16.5025 18.41 16.3825 17.59 16.4025C17.07 16.4025 16.61 16.4025 16.23 16.4225C15.83 16.4025 15.55 16.4225 15.41 16.4425Z" fill="#31A8FF"/>
<path d="M38.65 21.9426C38.05 21.6225 37.4101 21.4026 36.73 21.2625C35.9899 21.1026 35.2501 21.0024 34.4899 21.0024C34.09 20.9826 33.67 21.0426 33.2899 21.1425C33.0301 21.2025 32.8099 21.3426 32.6701 21.5424C32.5699 21.7026 32.5099 21.9024 32.5099 22.0824C32.5099 22.2624 32.59 22.4424 32.71 22.6026C32.89 22.8225 33.13 23.0025 33.3901 23.1426C33.85 23.3826 34.33 23.6025 34.81 23.8026C35.89 24.1626 36.9301 24.6624 37.8901 25.2624C38.5501 25.6824 39.0901 26.2425 39.4699 26.9226C39.79 27.5625 39.9499 28.2624 39.9301 28.9824C39.9499 29.9226 39.67 30.8625 39.1501 31.6425C38.59 32.4426 37.81 33.0624 36.91 33.4224C35.9299 33.8424 34.7299 34.0626 33.2899 34.0626C32.3701 34.0626 31.4701 33.9825 30.5701 33.8025C29.8699 33.6825 29.17 33.4626 28.5301 33.1626C28.39 33.0825 28.2901 32.9424 28.3099 32.7825V29.3025C28.3099 29.2425 28.33 29.1624 28.39 29.1225C28.45 29.0826 28.51 29.1024 28.57 29.1426C29.35 29.6025 30.1699 29.9226 31.0501 30.1224C31.81 30.3225 32.6101 30.4224 33.4099 30.4224C34.1701 30.4224 34.7101 30.3225 35.0701 30.1425C35.3899 30.0024 35.6101 29.6625 35.6101 29.3025C35.6101 29.0226 35.4499 28.7625 35.1301 28.5024C34.81 28.2426 34.15 27.9426 33.1699 27.5625C32.1499 27.2025 31.21 26.7225 30.3301 26.1225C29.71 25.6824 29.1901 25.1025 28.81 24.4224C28.4899 23.7825 28.33 23.0826 28.3501 22.3824C28.3501 21.5226 28.5901 20.7024 29.0299 19.9626C29.53 19.1625 30.2701 18.5225 31.1299 18.1225C32.0701 17.6425 33.25 17.4225 34.6699 17.4225C35.4901 17.4225 36.3301 17.4825 37.15 17.6025C37.75 17.6825 38.3299 17.8425 38.8699 18.0625C38.95 18.0825 39.0301 18.1625 39.07 18.2425C39.0901 18.3225 39.1099 18.4025 39.1099 18.4825V21.7425C39.1099 21.8226 39.07 21.9024 39.01 21.9426C38.83 21.9825 38.7301 21.9825 38.65 21.9426Z" fill="#31A8FF"/>
</svg>
