<svg width="49" height="48" viewBox="0 0 49 48" fill="none" xmlns="http://www.w3.org/2000/svg">
<path d="M10.625 34.2525V13.6525C10.625 13.5125 10.685 13.4325 10.825 13.4325C11.165 13.4325 11.485 13.4325 11.945 13.4125C12.425 13.3925 12.925 13.3925 13.465 13.3725C14.005 13.3525 14.585 13.3525 15.205 13.3325C15.825 13.3125 16.425 13.3125 17.025 13.3125C18.665 13.3125 20.0249 13.5125 21.1451 13.9325C22.145 14.2725 23.0651 14.8325 23.825 15.5725C24.4649 16.2125 24.965 16.9925 25.2851 17.8525C25.5851 18.6925 25.745 19.5525 25.745 20.4525C25.745 22.1724 25.3451 23.5926 24.545 24.7125C23.7449 25.8324 22.625 26.6724 21.3251 27.1524C19.9649 27.6525 18.465 27.8325 16.825 27.8325C16.345 27.8325 16.025 27.8325 15.825 27.8124C15.625 27.7926 15.345 27.7926 14.965 27.7926V34.2126C14.985 34.3524 14.885 34.4724 14.745 34.4925H14.665H10.865C10.705 34.4925 10.625 34.4124 10.625 34.2324V34.2525ZM14.985 17.3125V24.0324C15.265 24.0525 15.525 24.0726 15.765 24.0726H16.825C17.605 24.0726 18.385 23.9526 19.125 23.7126C19.7651 23.5326 20.3249 23.1525 20.765 22.6524C21.185 22.1526 21.3851 21.4725 21.3851 20.5926C21.4049 19.9725 21.245 19.3524 20.9249 18.8124C20.585 18.2925 20.105 17.8925 19.5251 17.6725C18.785 17.3725 17.985 17.2525 17.165 17.2725C16.645 17.2725 16.185 17.2725 15.805 17.2925C15.405 17.2725 15.125 17.2925 14.985 17.3125Z" fill="#9999FF"/>
<path d="M28.625 18.4925H32.1251C32.3251 18.4925 32.4851 18.6324 32.5451 18.8124C32.6051 18.9725 32.645 19.1325 32.6651 19.3125C32.705 19.5125 32.7451 19.7325 32.765 19.9325C32.7851 20.1525 32.8051 20.3925 32.8051 20.6525C33.4051 19.9524 34.1251 19.3725 34.9451 18.9324C35.8651 18.4125 36.9251 18.1524 37.985 18.1524C38.1251 18.1325 38.2451 18.2325 38.2651 18.3725V18.4524V22.3524C38.2651 22.5125 38.165 22.5725 37.9451 22.5725C37.2251 22.5525 36.485 22.6125 35.7851 22.7724C35.2051 22.8924 34.6451 23.0724 34.1051 23.3124C33.725 23.4924 33.365 23.7324 33.0851 24.0525V34.2525C33.0851 34.4525 33.005 34.5324 32.825 34.5324H28.8851C28.7251 34.5525 28.5851 34.4525 28.565 34.2924V34.2125V23.1324C28.565 22.6524 28.565 22.1525 28.5451 21.6324C28.5251 21.1125 28.5251 20.5925 28.505 20.0724C28.505 19.6125 28.4651 19.1724 28.4251 18.7125C28.4051 18.6125 28.4651 18.5124 28.565 18.4925C28.565 18.4725 28.6051 18.4725 28.625 18.4925Z" fill="#9999FF"/>
</svg>
