<svg width="49" height="48" viewBox="0 0 49 48" fill="none" xmlns="http://www.w3.org/2000/svg">
<path d="M24.2502 27.5533C26.1822 27.5533 27.7482 25.9871 27.7482 24.0553C27.7482 22.1235 26.1822 20.5573 24.2502 20.5573C22.3184 20.5573 20.7522 22.1235 20.7522 24.0553C20.7522 25.9871 22.3184 27.5533 24.2502 27.5533Z" fill="#00D8FF"/>
<path fill-rule="evenodd" clip-rule="evenodd" d="M24.2504 16.9431C28.9469 16.9431 33.3098 17.617 36.5995 18.7495C40.5631 20.1141 43 22.1824 43 24.0553C43 26.007 40.4174 28.2043 36.1609 29.6145C32.9431 30.6806 28.7086 31.2371 24.2504 31.2371C19.6795 31.2371 15.351 30.7147 12.0969 29.6027C7.97978 28.1955 5.5 25.9699 5.5 24.0553C5.5 22.1976 7.8268 20.1452 11.7347 18.7828C15.0366 17.6316 19.5072 16.9431 24.2496 16.9431H24.2504Z" stroke="#00D8FF" stroke-width="1.67081"/>
<path fill-rule="evenodd" clip-rule="evenodd" d="M18.059 20.5196C20.4053 16.4513 23.1685 13.0084 25.7931 10.7245C28.9551 7.97261 31.9645 6.8949 33.5868 7.83043C35.2774 8.80543 35.8908 12.1406 34.9861 16.5321C34.3026 19.8523 32.6688 23.7984 30.4414 27.6606C28.1579 31.6202 25.5432 35.1088 22.9544 37.3716C19.6786 40.2351 16.5116 41.2714 14.8531 40.3149C13.2438 39.3876 12.6284 36.3461 13.4004 32.2802C14.0527 28.8446 15.6897 24.6279 18.0582 20.5196H18.059Z" stroke="#00D8FF" stroke-width="1.67081"/>
<path fill-rule="evenodd" clip-rule="evenodd" d="M18.0648 27.6709C15.7119 23.607 14.1099 19.4929 13.4412 16.0784C12.6363 11.9645 13.2054 8.81916 14.8263 7.88091C16.5153 6.90306 19.711 8.03738 23.0639 11.0144C25.5989 13.2652 28.2019 16.651 30.4356 20.5093C32.7257 24.4652 34.4421 28.473 35.1098 31.8458C35.9547 36.114 35.2709 39.3752 33.6139 40.3343C32.0063 41.265 29.0643 40.2797 25.9272 37.5801C23.2767 35.2993 20.4409 31.7753 18.0648 27.6709Z" stroke="#00D8FF" stroke-width="1.67081"/>
</svg>
