<svg width="49" height="48" viewBox="0 0 49 48" fill="none" xmlns="http://www.w3.org/2000/svg">
<mask id="mask0_15_16" style="mask-type:luminance" maskUnits="userSpaceOnUse" x="5" y="9" width="39" height="30">
<path d="M43.25 9.9375H5.75V38.0454H43.25V9.9375Z" fill="white"/>
</mask>
<g mask="url(#mask0_15_16)">
<path d="M38.0201 26.093C36.7124 26.0998 35.5762 26.4148 34.6246 26.8802C34.2755 26.1889 33.9264 25.5727 33.8647 25.1209C33.7963 24.5938 33.7141 24.272 33.7963 23.6422C33.8784 23.0124 34.2481 22.1158 34.2412 22.0474C34.2344 21.9787 34.1591 21.6572 33.4061 21.6502C32.6531 21.6435 32.0028 21.794 31.9274 21.9926C31.8521 22.191 31.7084 22.6429 31.6126 23.1084C31.4825 23.793 30.1064 26.2369 29.3193 27.5169C29.066 27.0172 28.847 26.579 28.799 26.2299C28.7306 25.7029 28.6484 25.3811 28.7306 24.7513C28.8127 24.1215 29.1824 23.2247 29.1755 23.1562C29.1688 23.0878 29.0934 22.766 28.3404 22.7593C27.5874 22.7524 26.9369 22.9029 26.8617 23.1015C26.7864 23.3 26.7043 23.7656 26.5467 24.2173C26.3894 24.6692 24.5617 28.7492 24.0824 29.8033C23.8361 30.344 23.6238 30.7753 23.4733 31.0697C23.4733 31.0697 23.4663 31.0903 23.4459 31.1244C23.3158 31.3777 23.2404 31.5146 23.2404 31.5146C23.2404 31.5146 23.2404 31.5146 23.2404 31.5215C23.1378 31.7064 23.0281 31.8774 22.9734 31.8774C22.9323 31.8774 22.8571 31.3847 22.9871 30.7138C23.261 29.2967 23.9112 27.0924 23.9045 27.0172C23.9045 26.9762 24.0277 26.5927 23.48 26.3942C22.946 26.1956 22.7544 26.5243 22.7064 26.5243C22.6586 26.5243 22.6243 26.6407 22.6243 26.6407C22.6243 26.6407 23.2199 24.1625 21.488 24.1625C20.4063 24.1625 18.914 25.3468 18.1747 26.4148C17.7092 26.6681 16.7166 27.2089 15.6555 27.7907C15.2517 28.0166 14.8341 28.2425 14.4439 28.4548C14.4165 28.4274 14.3891 28.3931 14.3617 28.3657C12.267 26.1272 8.3924 24.546 8.55669 21.5407C8.6183 20.4454 8.9948 17.5703 15.9978 14.079C21.7618 11.2381 26.3484 12.0254 27.1424 13.771C28.2787 16.2628 24.6849 20.8903 18.7292 21.5612C16.4565 21.8145 15.2653 20.9383 14.9641 20.6098C14.6492 20.2674 14.6013 20.247 14.485 20.3154C14.2933 20.418 14.4165 20.726 14.485 20.904C14.6629 21.3695 15.3954 22.191 16.6345 22.5949C17.7298 22.9509 20.3926 23.1495 23.6169 21.9035C27.2246 20.507 30.0449 16.6256 29.2166 13.3739C28.3884 10.0744 22.9119 8.98594 17.7298 10.8274C14.6492 11.9227 11.3086 13.6478 8.90581 15.8931C6.05122 18.5629 5.5994 20.8835 5.78424 21.8555C6.44825 25.3057 11.2059 27.551 13.109 29.2145C13.0132 29.2693 12.9242 29.3173 12.8489 29.3584C11.8973 29.8307 8.26918 31.7269 7.36556 33.7327C6.33873 36.0054 7.52986 37.6346 8.3171 37.8536C10.761 38.5314 13.2733 37.3129 14.6219 35.3002C15.9704 33.2876 15.8062 30.6727 15.1832 29.4748C15.1764 29.4611 15.1695 29.4474 15.1558 29.4337C15.4023 29.2899 15.6555 29.1394 15.902 28.9955C16.388 28.7081 16.8672 28.4411 17.2779 28.2219C17.0452 28.8587 16.8741 29.6184 16.7919 30.7138C16.6892 32.0008 17.2163 33.671 17.9077 34.3282C18.2158 34.6157 18.5786 34.6226 18.8113 34.6226C19.6192 34.6226 19.982 33.9517 20.3859 33.1577C20.8786 32.1855 21.3237 31.056 21.3237 31.056C21.3237 31.056 20.7691 34.1092 22.2751 34.1092C22.8228 34.1092 23.3773 33.3973 23.6238 33.0345C23.6238 33.0412 23.6238 33.0412 23.6238 33.0412C23.6238 33.0412 23.6375 33.0208 23.6649 32.9728C23.7196 32.8837 23.7537 32.829 23.7537 32.829C23.7537 32.829 23.7537 32.8222 23.7537 32.8153C23.9729 32.432 24.4657 31.5626 25.1982 30.1181C26.1429 28.2562 27.0534 25.9288 27.0534 25.9288C27.0534 25.9288 27.1355 26.4969 27.4162 27.4415C27.5804 27.9962 27.9228 28.6054 28.1966 29.1941C27.9776 29.5022 27.8407 29.6732 27.8407 29.6732C27.8407 29.6732 27.8407 29.6732 27.8474 29.6801C27.6695 29.9128 27.4779 30.1661 27.2656 30.4125C26.5194 31.3025 25.6295 32.3225 25.5063 32.6169C25.3625 32.966 25.3968 33.2192 25.6706 33.4247C25.8691 33.5752 26.225 33.5957 26.5878 33.5752C27.2587 33.5272 27.7312 33.363 27.9639 33.2602C28.3267 33.1303 28.7512 32.9317 29.1481 32.6374C29.8807 32.0966 30.3256 31.323 30.2846 30.303C30.2639 29.7416 30.0791 29.1804 29.8533 28.6532C29.9217 28.5574 29.9832 28.4615 30.0517 28.3657C31.2087 26.6749 32.1054 24.8197 32.1054 24.8197C32.1054 24.8197 32.1875 25.3879 32.4682 26.3327C32.6051 26.8117 32.8858 27.332 33.1323 27.8387C32.0439 28.7218 31.373 29.7485 31.1334 30.4194C30.7021 31.6654 31.0376 32.2265 31.6741 32.3567C31.9618 32.4184 32.3724 32.2815 32.6737 32.1514C33.0569 32.0282 33.5088 31.8159 33.9401 31.5009C34.6724 30.9602 35.3776 30.2072 35.3366 29.1872C35.3159 28.7218 35.1928 28.263 35.0216 27.818C35.9458 27.4348 37.1369 27.2225 38.6566 27.4005C41.9152 27.7839 42.5587 29.817 42.4353 30.6727C42.3121 31.5283 41.6276 31.9939 41.4016 32.1377C41.1759 32.2815 41.1005 32.3293 41.1211 32.432C41.1485 32.5826 41.258 32.5757 41.4496 32.5483C41.7166 32.5005 43.1609 31.857 43.2226 30.2825C43.3254 28.2699 41.4086 26.0724 38.0201 26.093ZM12.8831 34.5679C11.8015 35.7452 10.2955 36.1903 9.64515 35.8138C8.9469 35.4097 9.22072 33.671 10.5487 32.4251C11.3565 31.6654 12.397 30.9602 13.0885 30.5289C13.2459 30.4331 13.4787 30.2962 13.7593 30.125C13.8072 30.0977 13.8346 30.084 13.8346 30.084C13.8894 30.0497 13.9441 30.0155 13.9989 29.9812C14.485 31.7612 14.0194 33.3289 12.8831 34.5679ZM20.7554 29.2145C20.3789 30.132 19.5918 32.4799 19.1125 32.3499C18.7018 32.2402 18.4485 30.4605 19.0304 28.7012C19.3248 27.818 19.9477 26.7639 20.3105 26.3531C20.8993 25.6959 21.5495 25.4769 21.707 25.7439C21.9056 26.093 20.9883 28.6395 20.7554 29.2145ZM27.2519 32.3225C27.0944 32.4047 26.9439 32.4594 26.8754 32.4184C26.8274 32.391 26.9439 32.2815 26.9439 32.2815C26.9439 32.2815 27.7586 31.4051 28.0803 31.0082C28.265 30.7753 28.4842 30.5015 28.7169 30.1935C28.7169 30.2209 28.7169 30.2552 28.7169 30.2825C28.7169 31.3299 27.7038 32.0349 27.2519 32.3225ZM32.2629 31.1792C32.1464 31.097 32.1671 30.8233 32.5573 29.9675C32.7078 29.6321 33.0639 29.0709 33.6731 28.53C33.7415 28.7492 33.7895 28.9612 33.7826 29.1598C33.7758 30.4811 32.831 30.9739 32.2629 31.1792Z" fill="white"/>
</g>
</svg>
