<svg width="49" height="48" viewBox="0 0 49 48" fill="none" xmlns="http://www.w3.org/2000/svg">
<g clip-path="url(#clip0_15_42)">
<path d="M2.65382 24.2023L12.0858 28.0243V30.6998L0.920288 25.5264V23.9567L2.65382 24.2023ZM12.0858 21.063L2.66747 24.9394L0.920288 25.1306V23.5472L12.0858 18.3876V21.063Z" fill="white"/>
<path d="M45.7571 24.7483L36.0521 20.9674V18.3603L47.7089 23.5198V25.117L45.7571 24.7483ZM36.0521 28.0789L45.7844 24.216L47.7089 23.9293V25.5128L36.0521 30.6861V28.0789Z" fill="white"/>
<path fill-rule="evenodd" clip-rule="evenodd" d="M33.5144 11.456C33.4604 12.3122 33.0748 13.2063 33.1822 14.0386C33.8559 15.2298 35.3386 15.4199 36.5619 15.5015C37.4094 15.653 37.3987 15.0918 37.3419 14.4614C37.3453 13.4537 37.3486 12.446 37.3522 11.4383C36.0729 11.4429 34.7932 11.4256 33.5144 11.456ZM23.4268 13.8506C21.344 14.204 19.2328 15.1993 17.5001 16.3974C16.1055 17.4828 18.6973 18.5347 19.6376 18.7106C21.5294 18.7336 23.2074 17.4576 24.4501 16.133C24.8559 15.576 25.3627 14.7236 24.8529 14.0782C24.4636 13.7406 23.8976 13.8225 23.4268 13.8506ZM27.8587 16.8795C26.1463 17.2056 24.5169 17.9115 23.0752 18.8942C22.0183 19.2261 21.1471 20.3865 22.4568 20.9679C23.8321 22.0639 25.4261 21.7954 26.6926 21.0555C27.8525 20.3661 29.1054 19.5154 29.642 18.2175C30.1488 16.7957 28.8412 16.7429 27.8587 16.8795ZM32.7166 22.3888C32.3977 23.7208 31.0563 24.3264 30.3427 25.3819C29.7592 26.1517 30.0294 27.0587 30.6937 27.6647C31.0171 28.3354 31.5841 28.7102 32.1922 28.1276C33.7582 27.063 34.1913 24.9892 34.1263 23.1924C34.2419 22.4503 33.3905 23.1212 32.7166 22.3888ZM26.7573 24.8906C24.6778 25.2465 22.5978 26.2597 20.8644 27.456C19.5187 28.5399 22.0531 29.5521 23.0011 29.7126C24.9281 29.7154 26.6469 28.4736 27.8653 27.0632C28.289 26.5031 28.8026 25.4154 27.9635 24.9701C27.5883 24.8111 27.1528 24.8578 26.7573 24.8906Z" fill="#B956A6"/>
<path fill-rule="evenodd" clip-rule="evenodd" d="M17.5001 16.3974C15.9008 17.0374 14.3578 17.8144 12.8344 18.6281C12.5512 19.6809 12.7783 20.9846 12.7048 22.1391C12.6993 26.8858 12.702 31.6328 12.7011 36.3795C13.8774 36.3795 15.0538 36.3795 16.2301 36.3795C16.9425 35.7086 17.8351 35.2176 18.609 34.6084C21.5891 32.4711 24.5683 30.3255 27.5444 28.1942C27.7634 28.2926 27.6232 26.9059 27.1428 27.8691C26.0045 28.9403 24.4936 29.8213 22.8944 29.7353C21.9869 29.4368 20.5241 28.9303 20.5149 27.8183C21.1537 27.0662 19.3363 28.212 18.8391 28.3761C17.2223 29.1523 15.6439 30.0191 14.0239 30.7809C14.4133 30.3628 15.1417 29.973 15.6579 29.5583C19.3466 26.9104 23.0343 24.2522 26.7318 21.6064C27.443 21.1071 28.13 20.5624 28.8631 20.0957C28.9301 20.3543 29.0557 18.8595 28.5104 19.7798C27.3989 20.8815 25.8997 21.7016 24.3185 21.7129C23.4292 21.4429 21.5351 20.7973 21.9568 19.6491C22.1624 19.2461 20.0465 20.508 20.9814 19.7964C21.9764 19.0693 22.9794 18.3551 23.9821 17.6355C24.4886 17.5974 24.3808 15.7164 23.6926 16.9297C22.5367 17.9454 21.0179 18.8747 19.4259 18.6545C18.5315 18.397 17.4584 17.8983 17.1334 16.9631C17.0257 16.7384 17.7355 16.3885 17.5001 16.3974ZM24.1261 17.5587C24.0374 17.8124 24.2868 17.466 24.1261 17.5587V17.5587Z" fill="#FCCC44"/>
<path fill-rule="evenodd" clip-rule="evenodd" d="M34.2311 15.1405C33.7317 17.525 33.1859 20.0203 32.7166 22.3888C34.0651 24.0883 34.1958 21.3152 34.4317 20.531C34.8129 18.8921 35.2644 17.6546 35.3122 15.9576C35.4134 15.3786 34.7328 15.0278 34.2311 15.1405ZM35.7781 17.0103C35.7359 17.2548 35.8396 17.0562 35.7781 17.0103V17.0103ZM34.205 22.3567C34.2699 22.2169 34.2699 22.4964 34.205 22.3567V22.3567Z" fill="#62777F"/>
<path fill-rule="evenodd" clip-rule="evenodd" d="M35.1155 15.4105C35.5362 17.7736 34.1425 20.6441 33.6867 22.872C34.7217 22.1104 35.5214 18.6548 35.7258 17.3022C35.7785 17.1474 35.8434 16.7581 35.8574 16.7442C35.9225 16.4157 36.5287 15.8595 36.5619 15.5016C36.9147 15.2525 34.8275 15.2124 35.1155 15.4105ZM34.2573 22.3568C34.1922 22.2169 34.1922 22.4964 34.2573 22.3568V22.3568Z" fill="#4E5E67"/>
<path fill-rule="evenodd" clip-rule="evenodd" d="M17.5351 16.4368C16.9516 17.021 17.1706 16.8783 17.6049 16.3925L17.5351 16.4368ZM23.8464 16.7261C23.1704 17.7418 20.7329 18.5912 20.426 18.6569C21.8922 18.3824 23.2589 17.4703 24.2206 16.4017C24.0678 16.4697 23.9771 16.6298 23.8464 16.7261ZM17.1342 17.0559C17.4985 17.9319 18.8232 18.514 19.4669 18.6498C18.5881 18.3667 17.5536 17.8645 17.1342 17.0559ZM24.0736 17.5625C23.8897 17.7797 23.2346 18.1046 22.8892 18.423C22.1484 18.9696 21.3821 19.4773 20.6497 20.0374C21.116 20.0173 22.4825 18.9965 21.782 20.0323C22.3756 21.054 23.6681 21.7644 24.8465 21.6996C26.4027 21.4552 27.8379 20.5948 28.8695 19.3982C27.6172 20.6374 25.9616 21.8036 24.1295 21.6429C23.2428 21.4382 20.8199 20.1866 22.4407 19.3093C23.0122 18.8392 23.9975 18.593 24.1091 17.7669C24.0856 17.6638 24.2778 17.5632 24.0736 17.5625ZM19.6376 18.7106C20.2272 18.6336 20.2272 18.7877 19.6376 18.7106V18.7106ZM28.8256 20.1216C26.4858 21.7517 24.1799 23.4456 21.8604 25.1049C19.2317 26.9863 16.6142 28.8746 13.9861 30.7545C14.9742 30.4213 15.9642 29.7707 16.9459 29.3212C18.2975 28.6061 19.7231 28.0412 20.9879 27.1725C23.4888 25.7002 26.1337 24.2975 28.0572 22.0451C28.4771 21.5527 28.898 20.7602 28.9167 20.2271C28.8562 20.2442 28.9021 20.0139 28.8256 20.1216ZM20.8644 27.456C20.4434 27.9317 20.2724 28.2716 20.7093 27.6667C20.7016 27.7369 21.0639 27.2912 20.8644 27.456ZM27.2686 27.6836C26.1597 28.8529 24.5197 29.6962 22.9809 29.753C24.7599 29.766 26.3649 28.71 27.5701 27.4642C27.491 27.3686 27.3307 27.687 27.2686 27.6836ZM27.6074 28.0511C23.882 30.7631 20.0279 33.5762 16.2899 36.2784C16.8789 36.4631 18.161 36.5497 18.746 35.7958C19.9912 34.9367 21.3909 34.305 22.64 33.4342C24.4488 32.2605 26.3855 30.9776 27.4128 29.0049C27.4617 28.7404 27.8253 28.2645 27.6074 28.0511ZM20.5175 28.2232C20.6904 28.953 22.8515 29.7906 22.6171 29.6302C21.8202 29.3509 21.0297 28.9155 20.5175 28.2232Z" fill="#DC9624"/>
</g>
<defs>
<clipPath id="clip0_15_42">
<rect width="48" height="48" fill="white" transform="translate(0.5)"/>
</clipPath>
</defs>
</svg>
