<svg width="48" height="48" viewBox="0 0 48 48" fill="none" xmlns="http://www.w3.org/2000/svg">
<path d="M7.30736 15.1324L7.29211 17.0982H10.4159H13.5397V25.9744V34.8505H15.7493H17.9588V25.9744V17.0982H21.0826H24.2063V15.1705C24.2063 14.1038 24.1836 13.2124 24.1531 13.1896C24.1302 13.1592 20.3283 13.1438 15.7188 13.1515L7.33021 13.1744L7.30736 15.1324Z" fill="white"/>
<path d="M35.2049 13.1096C36.4238 13.4145 37.3535 13.9554 38.2068 14.8391C38.6487 15.3116 39.3038 16.1726 39.3573 16.3783C39.3725 16.4392 37.2848 17.8412 36.0201 18.6258C35.9744 18.6564 35.7914 18.4582 35.5857 18.1535C34.9686 17.2545 34.321 16.8658 33.3305 16.7973C31.8753 16.6982 30.9381 17.4602 30.9458 18.7325C30.9458 19.1058 30.9991 19.3267 31.1515 19.6316C31.4714 20.2944 32.0658 20.6906 33.9325 21.4982C37.3686 22.9764 38.839 23.9516 39.7535 25.3382C40.7744 26.8848 41.003 29.3535 40.3096 31.1897C39.5478 33.1858 37.6581 34.542 34.999 34.9916C34.1763 35.1363 32.2257 35.1135 31.342 34.9535C29.4143 34.6106 27.5858 33.6583 26.4582 32.4088C26.0163 31.9211 25.1553 30.6487 25.2087 30.5572C25.2314 30.5268 25.4296 30.405 25.6505 30.2754C25.8638 30.1535 26.6716 29.6887 27.4334 29.2468L28.8125 28.4467L29.102 28.8735C29.5058 29.4905 30.3895 30.3363 30.923 30.6182C32.4543 31.4259 34.5573 31.3115 35.5934 30.3821C36.0353 29.9782 36.2181 29.5592 36.2181 28.9421C36.2181 28.3858 36.1495 28.142 35.86 27.723C35.4867 27.1897 34.7249 26.7401 32.561 25.803C30.0848 24.7363 29.0181 24.0735 28.043 23.022C27.4791 22.4126 26.9457 21.4372 26.7248 20.622C26.542 19.944 26.4963 18.2448 26.641 17.5592C27.1514 15.1668 28.9572 13.4983 31.5629 13.0029C32.4087 12.843 34.3743 12.9039 35.2049 13.1096Z" fill="white"/>
</svg>
