<svg width="49" height="48" viewBox="0 0 49 48" fill="none" xmlns="http://www.w3.org/2000/svg">
<path d="M43.079 10.8003L25.4855 42.2604C25.1221 42.9101 24.1889 42.9139 23.8203 42.2676L5.87793 10.8033C5.47625 10.0989 6.07858 9.24571 6.8768 9.3884L24.4891 12.5365C24.6014 12.5566 24.7166 12.5564 24.8289 12.5359L42.0729 9.3929C42.8684 9.24791 43.4735 10.0945 43.079 10.8003Z" fill="url(#paint0_linear_15_109)"/>
<path d="M32.8788 5.25923L19.8592 7.81039C19.6451 7.85232 19.4866 8.03367 19.4739 8.25132L18.6729 21.7778C18.654 22.0963 18.9466 22.3436 19.2575 22.2718L22.8824 21.4354C23.2216 21.3572 23.528 21.6559 23.4584 21.9969L22.3814 27.2706C22.3089 27.6255 22.6422 27.9289 22.9887 27.8237L25.2277 27.1434C25.5747 27.0381 25.9083 27.3424 25.8348 27.6977L24.1233 35.9813C24.0162 36.4995 24.7055 36.7821 24.9929 36.3377L25.1849 36.0411L35.7941 14.8686C35.9718 14.5141 35.6654 14.1099 35.276 14.185L31.5449 14.9051C31.1943 14.9727 30.896 14.6462 30.9948 14.3031L33.4303 5.86092C33.5293 5.51728 33.2298 5.19047 32.8788 5.25923Z" fill="url(#paint1_linear_15_109)"/>
<defs>
<linearGradient id="paint0_linear_15_109" x1="5.43986" y1="8.26406" x2="27.3363" y2="38.0012" gradientUnits="userSpaceOnUse">
<stop stop-color="#41D1FF"/>
<stop offset="1" stop-color="#BD34FE"/>
</linearGradient>
<linearGradient id="paint1_linear_15_109" x1="23.4783" y1="5.95187" x2="27.4392" y2="33.1238" gradientUnits="userSpaceOnUse">
<stop stop-color="#FFEA83"/>
<stop offset="0.0833333" stop-color="#FFDD35"/>
<stop offset="1" stop-color="#FFA800"/>
</linearGradient>
</defs>
</svg>
