<svg width="49" height="48" viewBox="0 0 49 48" fill="none" xmlns="http://www.w3.org/2000/svg">
<path d="M6.82172 18.789C6.82172 18.789 5.93402 18.1491 6.99926 17.2947L9.48114 15.0754C9.48114 15.0754 10.1913 14.3282 10.9422 14.9792L33.845 32.319V40.6339C33.845 40.6339 33.8339 41.9396 32.1583 41.7953L6.82172 18.789Z" fill="#2489CA"/>
<path d="M12.7249 24.1486L6.82169 29.5154C6.82169 29.5154 6.21509 29.9667 6.82169 30.7731L9.56249 33.2659C9.56249 33.2659 10.2135 33.9651 11.1751 33.1697L17.4335 28.4243L12.7249 24.1486Z" fill="#1070B3"/>
<path d="M23.0889 24.1929L33.9153 15.9261L33.845 7.6556C33.845 7.6556 33.3826 5.8506 31.8403 6.79008L17.4335 19.9022L23.0889 24.1929Z" fill="#0877B9"/>
<path d="M32.1583 41.8065C32.7871 42.45 33.5491 42.2393 33.5491 42.2393L41.9861 38.0818C43.0661 37.3457 42.9144 36.4322 42.9144 36.4322V11.6059C42.9144 10.5148 41.7973 10.1375 41.7973 10.1375L34.4849 6.61258C32.8871 5.62502 31.8403 6.79012 31.8403 6.79012C31.8403 6.79012 33.1865 5.82105 33.845 7.65564V40.4822C33.845 40.708 33.7968 40.9298 33.7008 41.1296C33.5084 41.518 33.0905 41.8804 32.0881 41.7287L32.1583 41.8065Z" fill="#3C99D4"/>
</svg>
